<svg width="270" height="83" viewBox="0 0 270 83" fill="none" xmlns="http://www.w3.org/2000/svg">
<g clip-path="url(#clip0_329_1660)">
<path d="M105.599 53.3823C106.358 53.0564 107.081 52.658 107.731 52.2234C108.382 51.7888 108.96 51.2456 109.43 50.5213C109.899 49.8332 110.261 48.9278 110.55 47.8413C110.803 46.7548 110.948 45.3786 110.948 43.7127V28.3571C110.948 27.9587 110.875 27.7052 110.731 27.5604C110.586 27.4517 110.333 27.3793 109.972 27.3793H105.31V43.1694C105.31 45.8132 104.912 48.0586 104.153 49.8332C103.394 51.644 102.419 53.0926 101.262 54.2515C100.106 55.4104 98.8407 56.2434 97.4674 56.7866C96.0941 57.3299 94.8292 57.6921 93.6728 57.8007C92.6247 57.9093 91.7573 57.7283 91.0346 57.2575C90.3118 56.7504 89.9142 56.0985 89.7335 55.2656C89.5528 54.2877 89.6251 53.3823 89.9504 52.5494C90.2756 51.7164 90.9984 51.0645 92.1549 50.5937C92.697 50.3402 93.2752 50.0867 93.8535 49.797C94.4317 49.5072 94.9376 49.1089 95.4075 48.5656C95.8773 48.0586 96.2387 47.3343 96.5278 46.5013C96.8169 45.6321 96.9615 44.5094 96.9615 43.1332V28.4658C96.9615 28.0674 96.8892 27.8139 96.7446 27.669C96.6001 27.5604 96.3471 27.4879 95.9857 27.4879H93.3114C92.6608 27.4879 92.1187 27.3793 91.6489 27.162C91.1791 26.9447 90.8177 26.655 90.5286 26.2928C90.2395 25.9306 90.0226 25.5323 89.8781 25.0615C89.7335 24.5906 89.6612 24.1561 89.6612 23.6852C89.6612 23.2144 89.7335 22.7798 89.8419 22.309C89.9504 21.8744 90.1672 21.4399 90.4563 21.0777C90.7454 20.7155 91.1068 20.4258 91.5766 20.2085C92.0465 19.9912 92.5886 19.8826 93.2752 19.8826H113.369C114.67 19.8826 115.718 19.9912 116.513 20.1723C117.344 20.3534 117.959 20.6793 118.392 21.1139C118.826 21.5485 119.115 22.128 119.26 22.8523C119.404 23.5766 119.477 24.482 119.477 25.6047V43.7489C119.477 46.4651 119.151 48.8191 118.501 50.811C117.85 52.8029 116.947 54.4688 115.863 55.8088C114.742 57.1488 113.477 58.2353 112.068 58.9958C110.658 59.7564 109.177 60.2996 107.695 60.5531C106.755 60.7342 105.852 60.6255 105.021 60.2272C104.189 59.8288 103.647 59.2131 103.394 58.4164C103.069 57.3299 103.069 56.3521 103.467 55.4104C103.864 54.4688 104.551 53.7807 105.563 53.3461L105.599 53.3823ZM123.199 61.5672V22.7436C123.199 21.2226 123.669 20.0999 124.572 19.3393C125.476 18.5788 126.56 18.1804 127.789 18.1804C129.017 18.1804 130.102 18.5788 131.005 19.3393C131.909 20.0999 132.378 21.2588 132.378 22.7436V61.5672H123.235H123.199Z" fill="#555555"/>
<path d="M146.365 50.0505C146.365 50.8472 146.51 51.3905 146.835 51.644C147.16 51.8975 147.702 52.0424 148.497 52.0424H162.086C162.809 52.0424 163.387 52.151 163.893 52.3683C164.399 52.5856 164.796 52.8753 165.122 53.2375C165.447 53.5996 165.664 53.998 165.808 54.4688C165.953 54.9034 166.025 55.3742 166.025 55.845C166.025 56.7866 165.7 57.6558 165.085 58.4526C164.471 59.2493 163.459 59.6477 162.086 59.6477H145.064C143.618 59.6477 142.39 59.5028 141.378 59.2131C140.366 58.9234 139.535 58.4888 138.92 57.8731C138.306 57.2575 137.836 56.4607 137.547 55.4467C137.258 54.4326 137.113 53.2375 137.113 51.7888V43.3867C137.113 41.9381 137.258 40.7068 137.547 39.7289C137.836 38.7511 138.306 37.9543 138.92 37.3387C139.535 36.723 140.366 36.2884 141.378 36.0349C142.39 35.7814 143.618 35.6365 145.064 35.6365H153.304V28.9366C153.304 28.6106 153.232 28.3209 153.087 28.0674C152.942 27.7777 152.581 27.6328 152.075 27.6328H141.45C140.727 27.6328 140.149 27.5241 139.643 27.3068C139.137 27.0896 138.74 26.7998 138.45 26.4377C138.125 26.0755 137.908 25.6409 137.764 25.2063C137.619 24.7717 137.547 24.2647 137.547 23.8301C137.547 23.3955 137.619 22.8885 137.764 22.4539C137.908 21.9831 138.125 21.5847 138.45 21.2226C138.776 20.8604 139.173 20.5345 139.679 20.3172C140.185 20.0999 140.763 19.955 141.486 19.955H154.533C156.123 19.955 157.46 20.0637 158.472 20.3172C159.52 20.5707 160.315 20.9691 160.929 21.5123C161.544 22.0555 161.977 22.7798 162.23 23.6852C162.483 24.5906 162.592 25.6771 162.592 27.0171V43.2057H148.497C147.702 43.2057 147.16 43.3505 146.835 43.604C146.51 43.8575 146.365 44.4008 146.365 45.1975V50.1591V50.0505ZM168.555 61.5672V22.7436C168.555 21.2226 169.025 20.0999 169.928 19.3393C170.868 18.5788 171.916 18.1804 173.145 18.1804C174.373 18.1804 175.458 18.5788 176.361 19.3393C177.301 20.0999 177.734 21.2588 177.734 22.7436V61.5672H168.519H168.555Z" fill="#555555"/>
<path d="M197.827 53.3823C198.586 53.0564 199.309 52.658 199.96 52.2234C200.61 51.7888 201.188 51.2456 201.658 50.5213C202.128 49.8332 202.489 48.9278 202.779 47.8413C203.032 46.7548 203.176 45.3786 203.176 43.7127V28.3571C203.176 27.9587 203.104 27.7052 202.959 27.5604C202.815 27.4517 202.562 27.3793 202.2 27.3793H197.538V43.1694C197.538 45.8132 197.141 48.0586 196.382 49.8332C195.623 51.644 194.647 53.0926 193.491 54.2515C192.334 55.4104 191.069 56.2434 189.696 56.7866C188.323 57.3299 187.058 57.6921 185.901 57.8007C184.853 57.9093 183.986 57.7283 183.263 57.2575C182.54 56.7504 182.143 56.0985 181.962 55.2656C181.781 54.2877 181.854 53.3823 182.179 52.5494C182.504 51.7164 183.227 51.0645 184.383 50.5937C184.926 50.3402 185.504 50.0867 186.082 49.797C186.66 49.5072 187.166 49.1089 187.636 48.5656C188.106 48.0586 188.467 47.3343 188.756 46.5013C189.045 45.6321 189.19 44.5094 189.19 43.1332V28.4658C189.19 28.0674 189.118 27.8139 188.973 27.669C188.829 27.5604 188.576 27.4879 188.214 27.4879H185.54C184.889 27.4879 184.347 27.3793 183.877 27.162C183.408 26.9447 183.046 26.655 182.757 26.2928C182.468 25.9306 182.251 25.5323 182.107 25.0615C181.962 24.5906 181.89 24.1561 181.89 23.6852C181.89 23.2144 181.962 22.7798 182.07 22.309C182.179 21.8744 182.396 21.4399 182.685 21.0777C182.974 20.7155 183.335 20.4258 183.805 20.2085C184.275 19.9912 184.817 19.8826 185.504 19.8826H205.597C206.898 19.8826 207.947 19.9912 208.742 20.1723C209.573 20.3534 210.187 20.6793 210.621 21.1139C211.055 21.5485 211.344 22.128 211.488 22.8523C211.633 23.5766 211.705 24.482 211.705 25.6047V43.7489C211.705 46.4651 211.38 48.8191 210.729 50.811C210.079 52.8029 209.175 54.4688 208.091 55.8088C206.971 57.1488 205.706 58.2353 204.296 58.9958C202.887 59.7564 201.405 60.2996 199.923 60.5531C198.984 60.7342 198.08 60.6255 197.249 60.2272C196.418 59.8288 195.876 59.2131 195.623 58.4164C195.298 57.3299 195.298 56.3521 195.695 55.4104C196.093 54.4688 196.779 53.7807 197.791 53.3461L197.827 53.3823ZM215.427 61.5672V22.7436C215.427 21.2226 215.897 20.0999 216.801 19.3393C217.704 18.5788 218.788 18.1804 220.017 18.1804C221.246 18.1804 222.33 18.5788 223.234 19.3393C224.137 20.0999 224.607 21.2588 224.607 22.7436V61.5672H215.464H215.427Z" fill="#555555"/>
<path d="M238.594 50.0505C238.594 50.8472 238.738 51.3905 239.063 51.644C239.389 51.8975 239.931 52.0424 240.726 52.0424H254.314C255.037 52.0424 255.615 52.151 256.121 52.3683C256.627 52.5856 257.025 52.8753 257.35 53.2375C257.675 53.5996 257.892 53.998 258.037 54.4688C258.181 54.9034 258.254 55.3742 258.254 55.845C258.254 56.7866 257.928 57.6558 257.314 58.4526C256.7 59.2493 255.688 59.6477 254.314 59.6477H237.293C235.847 59.6477 234.618 59.5028 233.606 59.2131C232.594 58.9234 231.763 58.4888 231.149 57.8731C230.534 57.2575 230.065 56.4607 229.775 55.4467C229.486 54.4326 229.342 53.2375 229.342 51.7888V43.3867C229.342 41.9381 229.486 40.7068 229.775 39.7289C230.065 38.7511 230.534 37.9543 231.149 37.3387C231.763 36.723 232.594 36.2884 233.606 36.0349C234.618 35.7814 235.847 35.6365 237.293 35.6365H245.532V28.9366C245.532 28.6106 245.46 28.3209 245.316 28.0674C245.171 27.7777 244.81 27.6328 244.304 27.6328H233.679C232.956 27.6328 232.378 27.5241 231.872 27.3068C231.366 27.0896 230.968 26.7998 230.679 26.4377C230.354 26.0755 230.137 25.6409 229.992 25.2063C229.848 24.7717 229.775 24.2647 229.775 23.8301C229.775 23.3955 229.848 22.8885 229.992 22.4539C230.137 21.9831 230.354 21.5847 230.679 21.2226C231.004 20.8604 231.402 20.5345 231.908 20.3172C232.414 20.0999 232.992 19.955 233.715 19.955H246.761C248.351 19.955 249.688 20.0637 250.7 20.3172C251.748 20.5707 252.544 20.9691 253.158 21.5123C253.772 22.0555 254.206 22.7798 254.459 23.6852C254.712 24.5906 254.82 25.6771 254.82 27.0171V43.2057H240.726C239.931 43.2057 239.389 43.3505 239.063 43.604C238.738 43.8575 238.594 44.4008 238.594 45.1975V50.1591V50.0505ZM260.783 61.5672V22.7436C260.783 21.2226 261.253 20.0999 262.157 19.3393C263.096 18.5788 264.144 18.1804 265.373 18.1804C266.602 18.1804 267.686 18.5788 268.59 19.3393C269.529 20.0999 269.963 21.2588 269.963 22.7436V61.5672H260.747H260.783Z" fill="#555555"/>
<path d="M61.2568 61.2412C60.4979 61.2412 59.7028 60.9515 59.0884 60.4082C57.7874 59.2131 57.7151 57.185 58.9077 55.8813C66.75 47.2981 68.4486 32.5944 62.7024 22.4177C61.835 20.8966 62.3771 18.941 63.9311 18.0718C65.449 17.2026 67.4006 17.7458 68.2679 19.3031C75.279 31.7614 73.2191 49.7245 63.6059 60.2272C62.9915 60.9153 62.1242 61.2774 61.2568 61.2774V61.2412Z" fill="#78C3ED"/>
<path d="M31.9126 82.5C30.72 82.5 29.5996 81.8119 29.0575 80.7254C28.5154 79.639 28.6239 78.3352 29.3467 77.3573C30.6477 75.619 32.0571 73.6271 33.2136 71.8887C28.7323 71.8887 24.2148 71.1282 20.1672 69.6071C18.5047 68.9914 17.7097 67.1444 18.324 65.4785C18.9384 63.8126 20.7815 63.0158 22.444 63.6315C27.2867 65.4785 32.9968 65.9855 38.1286 65.0439C39.1405 64.8628 40.1524 65.1526 40.9114 65.8769C41.6342 66.6012 41.9956 67.6152 41.8871 68.6293C41.7426 69.6071 41.1644 70.9471 40.3693 72.432C42.8629 70.585 45.5734 68.0136 48.3562 64.8628C49.5126 63.5591 51.5365 63.4142 52.8736 64.5731C54.1747 65.732 54.3192 67.7601 53.1627 69.1001C45.3566 77.9368 38.237 82.4276 31.9849 82.5H31.9126Z" fill="#80C372"/>
<path d="M11.1675 61.2412C10.3001 61.2412 9.43276 60.8791 8.81839 60.1909C-0.794784 49.6883 -2.85475 31.7252 4.15636 19.2669C5.02371 17.7458 6.97526 17.1664 8.49313 18.0355C10.011 18.9047 10.5531 20.8604 9.72188 22.3815C4.0118 32.5582 5.67423 47.2618 13.5166 55.845C14.7092 57.1488 14.6369 59.1769 13.3359 60.372C12.7215 60.9515 11.9625 61.205 11.1675 61.205V61.2412Z" fill="#A088CE"/>
<path d="M16.1197 13.1464C15.1801 13.1464 14.2766 12.748 13.6622 11.9875C12.5419 10.6113 12.7587 8.6194 14.0959 7.49671C26.3111 -2.4989 46.1157 -2.4989 58.2948 7.49671C59.6681 8.6194 59.8488 10.6113 58.7285 11.9875C57.6081 13.3637 55.6205 13.5448 54.2471 12.4221C44.4533 4.38213 27.9013 4.38213 18.1074 12.4221C17.5292 12.8929 16.8064 13.1464 16.0836 13.1464H16.1197Z" fill="#F7D359"/>
<path d="M30.8271 33.6446C30.9717 33.3549 31.1163 33.0652 31.2247 32.7754C31.3331 32.4857 31.4054 32.1598 31.4777 31.8338C31.5499 31.5079 31.5861 31.1095 31.6222 30.7111C31.6222 30.3128 31.6222 29.842 31.6222 29.3349V28.7555C31.6222 28.7555 31.5861 28.502 31.5138 28.4295C31.4415 28.3571 31.3331 28.3209 31.1885 28.3209H28.4781V29.3711C28.4781 30.0592 28.4781 30.6749 28.3696 31.2906C28.2974 31.9063 28.1889 32.4857 28.0805 32.9927C27.936 33.4998 27.7553 33.9706 27.5384 34.3689C27.3216 34.7673 27.0686 35.1295 26.7434 35.383C26.3097 35.7452 25.876 35.9262 25.37 35.9987C24.8641 36.0711 24.4304 35.9262 24.0329 35.5641C23.8883 35.4192 23.7438 35.2743 23.6715 35.0933C23.5992 34.9122 23.5631 34.6949 23.5631 34.5138C23.5631 34.3327 23.5992 34.1154 23.6715 33.8981C23.7438 33.6808 23.8522 33.4998 24.0329 33.3549C24.2497 33.1376 24.4304 32.8841 24.5388 32.6306C24.6834 32.3771 24.7557 32.0873 24.8279 31.7614C24.9002 31.4355 24.9364 31.0733 24.9725 30.7111C25.0086 30.349 24.9725 29.8782 24.9725 29.4074V28.3571H22.262C21.9729 28.3571 21.7561 28.3209 21.5392 28.2122C21.3585 28.1398 21.1778 27.9949 21.0694 27.8501C20.961 27.7052 20.8526 27.5241 20.7803 27.3431C20.708 27.162 20.6719 26.9809 20.6719 26.7998C20.6719 26.6187 20.6719 26.4377 20.7442 26.2566C20.8164 26.0755 20.8887 25.8944 21.0333 25.7495C21.1778 25.6047 21.3224 25.496 21.5392 25.3874C21.7561 25.2787 21.9729 25.2425 22.262 25.2425H32.3089C32.851 25.2425 33.2846 25.2787 33.6099 25.3874C33.9713 25.496 34.2604 25.6409 34.4773 25.8582C34.6941 26.0755 34.8387 26.329 34.9471 26.6549C35.0194 26.9809 35.0916 27.3793 35.0916 27.8139V29.4074C35.0916 30.6749 35.0194 31.7614 34.8387 32.6306C34.6941 33.4998 34.405 34.2603 34.0797 34.9122C33.8267 35.383 33.4292 35.7089 32.9232 35.89C32.4173 36.0711 31.9113 36.0711 31.4415 35.8538C31.2247 35.7814 31.0801 35.6365 30.9356 35.4916C30.791 35.3468 30.7187 35.1657 30.6464 34.9484C30.5742 34.7673 30.5742 34.55 30.5742 34.3327C30.5742 34.1154 30.6464 33.8981 30.7549 33.7171L30.8271 33.6446Z" fill="#A088CE"/>
<path d="M47.5955 28.6106C47.5955 28.6106 47.5955 28.3933 47.5232 28.2847C47.4509 28.176 47.3425 28.1398 47.1256 28.1398H40.2952C39.8615 28.1398 39.5363 27.9949 39.2833 27.7052C39.0303 27.4155 38.9219 27.0895 38.9219 26.6912C38.9219 26.2928 39.0303 26.0031 39.2833 25.7133C39.5363 25.4236 39.8615 25.2787 40.2952 25.2787H48.1376C48.7519 25.2787 49.2579 25.3512 49.6916 25.496C50.0891 25.6409 50.4144 25.822 50.6673 26.0755C50.9203 26.329 51.0649 26.6187 51.1733 26.9809C51.2817 27.3431 51.3178 27.7052 51.3178 28.1398V32.0511H43.1864C42.9696 32.0511 42.825 32.0874 42.7166 32.196C42.6082 32.3046 42.572 32.4133 42.572 32.5944V32.6668C42.572 32.9928 42.7889 33.1376 43.1864 33.1376H50.3059C50.5589 33.1376 50.7758 33.1738 50.9565 33.2463C51.1372 33.3187 51.2817 33.4273 51.3901 33.5722C51.4985 33.7171 51.5708 33.8619 51.6431 34.043C51.6792 34.2241 51.7154 34.369 51.7154 34.55C51.7154 34.7311 51.7154 34.876 51.6431 35.0571C51.5708 35.2381 51.4985 35.383 51.3901 35.4917C51.2817 35.6365 51.1372 35.7452 50.9565 35.8176C50.7758 35.89 50.5589 35.9262 50.3059 35.9262H42.2829C41.1264 35.9262 40.2229 35.6365 39.6086 35.0571C38.9942 34.4776 38.7051 33.7171 38.7051 32.7392V32.4133C38.7051 31.4355 38.9942 30.6749 39.6086 30.0955C40.2229 29.516 41.0903 29.2263 42.2829 29.2263H47.5955V28.6106Z" fill="#F7D359"/>
<path d="M30.8271 47.9499C30.9717 47.6602 31.1163 47.3705 31.2247 47.0807C31.3331 46.791 31.4054 46.4651 31.4777 46.1391C31.5499 45.8132 31.5861 45.4148 31.6222 45.0164C31.6222 44.6181 31.6222 44.1473 31.6222 43.6402V43.0608C31.6222 43.0608 31.5861 42.8073 31.5138 42.7348C31.4415 42.6624 31.3331 42.6262 31.1885 42.6262H28.4781V43.6764C28.4781 44.3645 28.4781 44.9802 28.3696 45.5959C28.2974 46.2116 28.1889 46.791 28.0805 47.298C27.936 47.8051 27.7553 48.2759 27.5384 48.6742C27.3216 49.0726 27.0686 49.4348 26.7434 49.6883C26.3097 50.0505 25.876 50.2315 25.37 50.304C24.8641 50.3764 24.4304 50.2315 24.0329 49.8694C23.8883 49.7245 23.7438 49.5796 23.6715 49.3986C23.5992 49.2175 23.5631 49.0002 23.5631 48.8191C23.5631 48.638 23.5992 48.4207 23.6715 48.2034C23.7438 47.9861 23.8522 47.8051 24.0329 47.6602C24.2497 47.4429 24.4304 47.1894 24.5388 46.9359C24.6834 46.6824 24.7557 46.3926 24.8279 46.0667C24.9002 45.7408 24.9364 45.3786 24.9725 45.0164C25.0086 44.6543 24.9725 44.1835 24.9725 43.7127V42.6624H22.262C21.9729 42.6624 21.7561 42.6262 21.5392 42.5175C21.3585 42.4451 21.1778 42.3002 21.0694 42.1554C20.961 42.0105 20.8526 41.8294 20.7803 41.6483C20.708 41.4673 20.6719 41.2862 20.6719 41.1051C20.6719 40.924 20.6719 40.7429 20.7442 40.5619C20.8164 40.3808 20.8887 40.1997 21.0333 40.0548C21.1778 39.91 21.3224 39.8013 21.5392 39.6927C21.7561 39.584 21.9729 39.5478 22.262 39.5478H32.3089C32.851 39.5478 33.2846 39.584 33.6099 39.6927C33.9713 39.8013 34.2604 39.9462 34.4773 40.1635C34.6941 40.3808 34.8387 40.6343 34.9471 40.9602C35.0194 41.2862 35.0916 41.6846 35.0916 42.1192V43.7127C35.0916 44.9802 35.0194 46.0667 34.8387 46.9359C34.6941 47.8051 34.405 48.5656 34.0797 49.2175C33.8267 49.6883 33.4292 50.0142 32.9232 50.1953C32.4173 50.3764 31.9113 50.3764 31.4415 50.1591C31.2247 50.0867 31.0801 49.9418 30.9356 49.7969C30.791 49.6521 30.7187 49.471 30.6464 49.2537C30.5742 49.0726 30.5742 48.8553 30.5742 48.638C30.5742 48.4207 30.6464 48.2034 30.7549 48.0224L30.8271 47.9499Z" fill="#80C372"/>
<path d="M47.5955 42.9159C47.5955 42.9159 47.5955 42.6986 47.5232 42.59C47.4509 42.4813 47.3425 42.4451 47.1256 42.4451H40.2952C39.8615 42.4451 39.5363 42.3002 39.2833 42.0105C39.0303 41.7208 38.9219 41.3948 38.9219 40.9965C38.9219 40.5981 39.0303 40.3084 39.2833 40.0186C39.5363 39.7289 39.8615 39.584 40.2952 39.584H48.1376C48.7519 39.584 49.2579 39.6565 49.6916 39.8013C50.0891 39.9462 50.4144 40.1273 50.6673 40.3808C50.9203 40.6343 51.0649 40.924 51.1733 41.2862C51.2817 41.6484 51.3178 42.0105 51.3178 42.4451V46.3564H43.1864C42.9696 46.3564 42.825 46.3926 42.7166 46.5013C42.6082 46.6099 42.572 46.7186 42.572 46.8997V46.9721C42.572 47.298 42.7889 47.4429 43.1864 47.4429H50.3059C50.5589 47.4429 50.7758 47.4791 50.9565 47.5516C51.1372 47.624 51.2817 47.7326 51.3901 47.8775C51.4985 48.0224 51.5708 48.1672 51.6431 48.3483C51.6792 48.5294 51.7154 48.6743 51.7154 48.8553C51.7154 49.0364 51.7154 49.1813 51.6431 49.3624C51.5708 49.5434 51.4985 49.6883 51.3901 49.797C51.2817 49.9418 51.1372 50.0505 50.9565 50.1229C50.7758 50.1953 50.5589 50.2315 50.3059 50.2315H42.2829C41.1264 50.2315 40.2229 49.9418 39.6086 49.3624C38.9942 48.7829 38.7051 48.0224 38.7051 47.0445V46.7186C38.7051 45.7408 38.9942 44.9802 39.6086 44.4008C40.2229 43.8213 41.0903 43.5316 42.2829 43.5316H47.5955V42.9159Z" fill="#78C3ED"/>
</g>
<defs>
<clipPath id="clip0_329_1660">
<rect width="270" height="83" fill="white"/>
</clipPath>
</defs>
</svg>
