<svg width="16" height="16" viewBox="0 0 16 16" fill="none" xmlns="http://www.w3.org/2000/svg">
<g clip-path="url(#clip0_296_166)">
<path d="M8.00052 10.1334C9.17873 10.1334 10.1339 9.17824 10.1339 8.00003C10.1339 6.82182 9.17873 5.8667 8.00052 5.8667C6.82231 5.8667 5.86719 6.82182 5.86719 8.00003C5.86719 9.17824 6.82231 10.1334 8.00052 10.1334Z" fill="#A088CE"/>
<path d="M6.90428 1.3335C6.32855 1.3335 5.7793 1.57541 5.39065 2.00016C5.002 2.42492 4.45276 2.66683 3.87702 2.66683H2.66732C1.93398 2.66683 1.33398 3.26683 1.33398 4.00016V12.0002C1.33398 12.7335 1.93398 13.3335 2.66732 13.3335H13.334C14.0673 13.3335 14.6673 12.7335 14.6673 12.0002V4.00016C14.6673 3.26683 14.0673 2.66683 13.334 2.66683H12.1243C11.5485 2.66683 10.9993 2.42492 10.6107 2.00016C10.222 1.57541 9.67276 1.3335 9.09702 1.3335H6.90428ZM8.00065 11.3335C6.16065 11.3335 4.66732 9.84016 4.66732 8.00016C4.66732 6.16016 6.16065 4.66683 8.00065 4.66683C9.84065 4.66683 11.334 6.16016 11.334 8.00016C11.334 9.84016 9.84065 11.3335 8.00065 11.3335Z" fill="#A088CE"/>
</g>
<defs>
<clipPath id="clip0_296_166">
<rect width="16" height="16" fill="white"/>
</clipPath>
</defs>
</svg>
