<svg width="32" height="32" viewBox="0 0 32 32" fill="none" xmlns="http://www.w3.org/2000/svg">
<path d="M15.666 2.66669C7.38157 2.66669 0.666016 7.78707 0.666016 14.1031C0.666016 20.4191 7.38157 25.5395 15.666 25.5395C17.1584 25.5395 18.5914 25.3287 19.9517 25.0196L27.4517 29.1783L25.3089 22.9403C28.6494 20.8433 30.666 17.6602 30.666 14.1031C30.666 7.78707 23.9504 2.66669 15.666 2.66669ZM9.77316 12.5436C10.6609 12.5436 11.3803 13.2416 11.3803 14.1031C11.3803 14.9645 10.6609 15.6626 9.77316 15.6626C8.8854 15.6626 8.16601 14.9645 8.16601 14.1031C8.16601 13.2416 8.8854 12.5436 9.77316 12.5436ZM15.666 12.5436C16.5538 12.5436 17.2732 13.2416 17.2732 14.1031C17.2732 14.9645 16.5538 15.6626 15.666 15.6626C14.7783 15.6626 14.0589 14.9645 14.0589 14.1031C14.0589 13.2416 14.7783 12.5436 15.666 12.5436ZM21.5589 12.5436C22.4466 12.5436 23.166 13.2416 23.166 14.1031C23.166 14.9645 22.4466 15.6626 21.5589 15.6626C20.6711 15.6626 19.9517 14.9645 19.9517 14.1031C19.9517 13.2416 20.6711 12.5436 21.5589 12.5436Z" fill="white"/>
</svg>
