<svg width="39" height="35" viewBox="0 0 39 35" fill="none" xmlns="http://www.w3.org/2000/svg">
<path d="M20.0484 19.4381C18.7099 20.2848 18.0312 19.7015 15.769 17.7072C14.0158 16.1644 13.5068 16.0515 12.3191 17.6884C12.0175 18.1023 12.0741 18.6479 12.4511 18.9866C13.5068 19.9838 14.5814 20.9621 15.6182 21.9593C15.9387 22.2604 16.0329 22.7307 15.8256 23.1258C15.7502 23.2764 15.6748 23.4269 15.6182 23.5586C15.7502 23.4081 17.4468 21.282 20.0484 19.4381Z" fill="#FCDFC6"/>
<path d="M7.21051 15.8633C7.6441 15.4682 7.6441 14.7909 7.21051 14.3958C6.70151 13.9442 6.24907 13.5303 5.79663 13.1164C2.61068 10.2565 2.38446 5.59049 5.28763 2.46724C8.26621 -0.731267 13.5636 -0.731267 16.6552 2.46724C19.8223 5.75982 19.6904 9.86144 16.1651 12.9471C13.7521 15.0543 11.1128 16.8793 8.62439 18.9113C4.32619 22.4297 2.51642 26.87 3.53441 32.4203C3.57212 32.8719 3.51556 32.9848 3.40245 33.2858C3.04427 34.2265 2.02627 34.6216 1.17794 34.0572C0.838612 33.8314 0.612391 33.5116 0.499281 33.06C-0.839194 27.6602 0.555836 22.8624 4.17537 18.7044C5.06141 17.7448 6.0794 16.8793 7.21051 15.8633ZM10.2456 12.6836C10.6038 12.9847 11.1317 13.0035 11.5087 12.7025C12.5456 11.8558 13.5258 11.122 14.3742 10.2565C16.0897 8.50677 15.9954 6.38071 14.2799 4.68738C12.5644 2.99405 9.60468 2.89998 7.87032 4.48042C6.26792 5.94797 6.11711 8.80781 7.6441 10.3882C8.39817 11.1597 9.2465 11.8558 10.2456 12.6836Z" fill="#FCDFC6"/>
<path d="M29.7007 18.6856C29.2859 18.3282 29.2482 17.7073 29.6064 17.3122C31.0957 15.5812 31.3973 15.7882 33.2448 17.5379C37.675 21.7148 39.4093 26.8136 38.2028 32.7591C38.0331 33.6246 36.7701 34.9416 36.1291 34.8851C34.6021 34.7534 34.866 33.3611 35.0734 32.1194C35.9029 27.3216 34.621 23.1824 31.0014 19.8522C30.5867 19.457 30.172 19.0996 29.7007 18.6856Z" fill="white"/>
<path d="M33.4711 2.69294C30.4736 -0.618454 25.3648 -0.787787 22.1223 2.33546C18.9175 5.42108 18.8798 9.57914 22.0657 12.6836C22.7067 13.3045 23.3854 13.8877 24.1206 14.5462C24.573 14.9413 24.573 15.6563 24.1206 16.0514C23.4419 16.6347 22.8198 17.1615 22.2166 17.7071C21.5002 18.328 20.9346 18.836 20.4822 19.1747C20.3314 19.2875 20.1994 19.3816 20.0675 19.4569C17.4659 21.3007 15.7504 23.4268 15.6184 23.5773C14.016 26.9828 14.2611 29.4099 16.2782 30.8398C17.8995 31.9875 20.3879 31.8558 21.7076 30.5388C23.0837 29.1841 23.3854 27.2086 22.3674 25.1201C22.0092 24.3675 20.8969 24.4052 20.5576 25.1766C20.2937 25.7975 20.0297 26.2866 19.8978 26.964C19.7281 27.773 18.7855 27.6601 18.7855 27.6601C17.9561 27.5284 17.8806 26.8134 17.8806 26.8134C17.8052 25.6846 19.483 24.217 19.483 24.217C23.8567 20.4164 28.2491 16.8416 32.6604 13.0975C35.9029 10.3505 36.2611 5.75975 33.4711 2.69294ZM27.6459 12.8153C26.2508 12.7965 23.0837 9.2781 23.046 7.71648C22.9895 5.38345 25.082 3.33264 27.5516 3.31383C30.1343 3.29501 32.0195 5.12004 32.0572 7.64122C32.076 9.37218 29.1163 12.8529 27.6459 12.8153Z" fill="white"/>
</svg>
