<svg width="32" height="32" viewBox="0 0 32 32" fill="none" xmlns="http://www.w3.org/2000/svg">
<mask id="mask0_207_2328" style="mask-type:alpha" maskUnits="userSpaceOnUse" x="0" y="0" width="32" height="32">
<rect width="32" height="32" fill="#D9D9D9"/>
</mask>
<g mask="url(#mask0_207_2328)">
<path fill-rule="evenodd" clip-rule="evenodd" d="M9.60712 3.00045C2.49333 6.46193 -0.468201 15.037 2.99327 22.1508C6.45474 29.2646 15.0299 32.2261 22.1436 28.7647C23.3317 28.1866 23.824 26.761 23.246 25.5729C22.9743 25.0147 22.5159 24.6182 21.9843 24.3989C21.474 24.1869 21.0155 23.7904 20.7509 23.2465C20.1728 22.0585 20.6652 20.6329 21.8532 20.0548L24.3867 18.822C28.3372 16.8998 29.9833 12.1335 28.061 8.18296C24.9826 1.85641 16.7209 -0.46102 9.60712 3.00045ZM17.1576 6.71678C17.5705 7.54607 17.2328 8.55299 16.4036 8.96582C15.5743 9.37864 14.5674 9.04104 14.1545 8.21176C13.7417 7.38248 14.0793 6.37555 14.9086 5.96272C15.7379 5.5499 16.7448 5.8875 17.1576 6.71678ZM22.7492 11.5504C23.5784 11.1376 23.916 10.1307 23.5032 9.30137C23.0904 8.47209 22.0835 8.13449 21.2542 8.54731C20.4249 8.96014 20.0873 9.96706 20.5001 10.7963C20.9129 11.6256 21.9199 11.9632 22.7492 11.5504ZM10.791 10.2204C11.2039 11.0497 10.8663 12.0566 10.037 12.4695C9.2077 12.8823 8.20077 12.5447 7.78794 11.7154C7.37512 10.8861 7.71272 9.87919 8.542 9.46637C9.37128 9.05354 10.3782 9.39115 10.791 10.2204ZM8.67191 18.5579C9.50119 18.145 9.8388 17.1381 9.42597 16.3088C9.01315 15.4795 8.00622 15.1419 7.17694 15.5548C6.34766 15.9676 6.01005 16.9745 6.42288 17.8038C6.8357 18.6331 7.84263 18.9707 8.67191 18.5579Z" fill="white"/>
</g>
</svg>
