<svg width="32" height="32" viewBox="0 0 32 32" fill="none" xmlns="http://www.w3.org/2000/svg">
<path d="M28.4715 16.7643C28.4715 19.3821 27.6953 21.9411 26.2409 24.1177C24.7866 26.2943 22.7194 27.9908 20.3009 28.9925C17.8824 29.9943 15.2211 30.2564 12.6536 29.7457C10.0861 29.235 7.72772 27.9744 5.87667 26.1234C4.02561 24.2723 2.76503 21.9139 2.25432 19.3464C1.74362 16.779 2.00573 14.1177 3.00751 11.6992C4.0093 9.28064 5.70576 7.2135 7.88237 5.75913C10.059 4.30477 12.618 3.5285 15.2358 3.5285V16.7643H28.4715Z" fill="white"/>
<path d="M17.334 1.33331C19.0849 1.33331 20.8188 1.67819 22.4364 2.34825C24.0541 3.01832 25.524 4.00044 26.7621 5.23856C28.0002 6.47667 28.9823 7.94653 29.6524 9.5642C30.3224 11.1819 30.6673 12.9157 30.6673 14.6666L17.334 14.6666V1.33331Z" fill="white"/>
</svg>
