<svg width="14" height="13" viewBox="0 0 14 13" fill="none" xmlns="http://www.w3.org/2000/svg">
<path d="M0 0.0161637C0.00895141 4.15386 0.0022379 8.29373 0.0022379 12.4336C1.60006 12.4423 3.20237 12.4401 4.80019 12.4336C4.82481 10.381 4.7711 8.32844 4.82928 6.27587C5.35518 6.98537 5.83184 7.72743 6.36893 8.43042C7.26407 9.77783 8.27781 11.0515 9.13715 12.4206C10.7462 12.4618 12.3574 12.4206 13.9664 12.4444C13.9843 12.2492 14 12.0561 14 11.8608C13.9754 7.90968 14.0201 3.96075 13.9776 0.00965478C12.3843 -0.00336367 10.7932 0.0118244 9.20205 0.00314541C9.19086 2.06657 9.21547 4.13216 9.18862 6.19342C7.7094 4.15386 6.31074 2.05355 4.79795 0.0378612C3.20237 -0.0315705 1.59783 0.0161641 0 0.0139944V0.0161637Z" fill="white"/>
</svg>
