<svg width="20" height="20" viewBox="0 0 20 20" fill="none" xmlns="http://www.w3.org/2000/svg">
<path d="M10.0766 5.08664C10.0506 5.08625 10.0248 5.08606 9.99876 5.08606C9.97275 5.08606 9.94692 5.08625 9.92091 5.08664C8.93075 5.09324 7.96215 5.22798 7.02344 5.4794L8.54575 6.54858C8.9855 6.36899 9.45942 6.27211 9.9477 6.2659C9.96459 6.2659 9.98148 6.26571 9.99857 6.26571C10.0157 6.26571 10.0325 6.2659 10.0494 6.2659C11.0571 6.2791 12.0022 6.67749 12.7161 7.39138C13.442 8.1173 13.8417 9.08241 13.8417 10.1089C13.8417 10.1613 13.8408 10.2137 13.8386 10.2657L17.2479 12.66C18.2307 11.9444 19.1523 11.0876 19.9988 10.1087C17.3046 6.99337 13.8481 5.11208 10.0766 5.08645V5.08664Z" fill="#DBDBDB"/>
<path d="M13.4933 11.7157L11.9992 10.6661L8.79764 8.41785L7.30464 7.36925L5.40917 6.03798L2.50684 4L1.71064 5.13383L4.00159 6.74273C2.54334 7.58495 1.19654 8.72518 0 10.1089C2.69439 13.2242 6.15062 15.1055 9.92215 15.1311C9.94817 15.1315 9.97399 15.1317 10 15.1317C10.026 15.1317 10.0518 15.1315 10.0779 15.1311C11.6475 15.1204 13.1627 14.7884 14.591 14.1796L17.493 16.2178L18.2892 15.0839L15.9984 13.475L13.4931 11.7157H13.4933ZM10.0509 13.9519C10.034 13.9519 10.0171 13.952 10 13.952C9.98292 13.952 9.96603 13.9519 9.94914 13.9519C8.94151 13.9387 7.99639 13.5403 7.28251 12.8264C6.55659 12.1005 6.15684 11.1353 6.15684 10.1089C6.15684 9.54488 6.2776 8.99932 6.50669 8.50191L8.00105 9.55148C7.95174 9.72874 7.92533 9.9159 7.92533 10.1089C7.92533 11.2545 8.85414 12.1835 10 12.1835C10.4483 12.1835 10.8632 12.0414 11.2026 11.7997L12.6956 12.8483C11.9844 13.5484 11.0484 13.9388 10.0509 13.9519Z" fill="#DBDBDB"/>
</svg>
