<svg width="20" height="20" viewBox="0 0 20 20" fill="none" xmlns="http://www.w3.org/2000/svg">
<path d="M11.4674 11.4604C12.2777 10.6538 12.2777 9.34618 11.4674 8.53965C10.6572 7.73312 9.34363 7.73312 8.53342 8.53965C7.72321 9.34618 7.72321 10.6538 8.53342 11.4603C9.34363 12.2669 10.6572 12.2669 11.4674 11.4604Z" fill="#DBDBDB"/>
<path d="M10.0779 5.00058C10.0518 5.00019 10.026 5 10 5C9.97398 5 9.94816 5 9.92215 5.00058C6.15062 5.0259 2.6942 6.89884 0 10C2.69439 13.1012 6.15062 14.9739 9.92215 14.9994C9.94816 14.9998 9.97398 15 10 15C10.026 15 10.0518 14.9998 10.0779 14.9994C13.8494 14.9739 17.3056 13.1012 20 10C17.306 6.89884 13.8496 5.0259 10.0779 5.00058ZM12.7175 12.7052C12.0036 13.4158 11.0585 13.8124 10.0509 13.8255C10.034 13.8255 10.0171 13.8257 10 13.8257C9.98291 13.8257 9.96602 13.8255 9.94913 13.8255C8.9415 13.8124 7.99639 13.4158 7.28251 12.7052C6.55658 11.9825 6.15683 11.0218 6.15683 10C6.15683 8.9782 6.55658 8.01747 7.28251 7.29485C7.99639 6.58421 8.9415 6.18762 9.94913 6.17448C9.96602 6.17448 9.98291 6.17448 10 6.17448C10.0171 6.17448 10.034 6.17448 10.0509 6.17448C11.0585 6.18762 12.0036 6.58421 12.7175 7.29485C13.4434 8.01747 13.8432 8.9782 13.8432 10C13.8432 11.0218 13.4434 11.9827 12.7175 12.7052Z" fill="#DBDBDB"/>
</svg>
