<svg width="24" height="24" viewBox="0 0 24 24" fill="none" xmlns="http://www.w3.org/2000/svg">
<path fill-rule="evenodd" clip-rule="evenodd" d="M11 17C14.3137 17 17 14.3137 17 11C17 7.68629 14.3137 5 11 5C7.68629 5 5 7.68629 5 11C5 14.3137 7.68629 17 11 17ZM11 19C12.6645 19 14.2102 18.4917 15.4904 17.6218L17.0003 19.1317L16.5786 19.5533L18.3989 21.3736C18.9441 21.9189 19.8282 21.9189 20.3735 21.3736C20.9187 20.8283 20.9187 19.9443 20.3735 19.399L18.5532 17.5788L18.1317 18.0003L16.7222 16.5908C18.1314 15.1486 19 13.1757 19 11C19 6.58172 15.4183 3 11 3C6.58172 3 3 6.58172 3 11C3 15.4183 6.58172 19 11 19ZM11.1667 6.12306C10.7382 6.11775 10.4463 6.52082 10.5115 6.94441C10.5767 7.368 10.9766 7.64843 11.4033 7.68857C11.8879 7.73415 12.3589 7.89181 12.7775 8.15355C13.1961 8.41529 13.5441 8.76971 13.7972 9.18536C14.0201 9.5514 14.4473 9.78814 14.8567 9.66128C15.2661 9.53443 15.5007 9.09556 15.3083 8.7126C14.9237 7.94728 14.3348 7.29686 13.6003 6.83758C12.8658 6.3783 12.0232 6.13366 11.1667 6.12306Z" fill="#5C5C5C"/>
</svg>
