<svg width="40" height="40" viewBox="0 0 40 40" fill="none" xmlns="http://www.w3.org/2000/svg">
<circle cx="20" cy="20" r="20" fill="#EEF6FA"/>
<path d="M18.4026 17.6835C18.4026 18.6247 17.6597 19.3667 16.7257 19.3667C15.7918 19.3667 15.0488 18.6066 15.0488 17.6835C15.0488 16.7424 15.7918 16.0003 16.7257 16.0003C17.6597 15.9822 18.4026 16.7424 18.4026 17.6835Z" fill="#424242"/>
<path d="M25.1096 17.6835C25.1096 18.6247 24.3667 19.3667 23.4327 19.3667C22.4988 19.3667 21.7559 18.6066 21.7559 17.6835C21.7559 16.7424 22.4988 16.0003 23.4327 16.0003C24.3455 15.9822 25.1096 16.7424 25.1096 17.6835Z" fill="#424242"/>
<path d="M19.0283 26.6332C15.4524 26.6332 12.7509 25.7747 11.0018 24.0774C8.96118 22.1069 9.00005 19.7462 9.00005 19.6487C9.00005 19.3755 9.17496 19.1804 9.48592 19.1804C9.758 19.1804 9.97179 19.4145 9.97179 19.6682C9.97179 19.6877 9.97178 21.7362 11.7015 23.3945C13.47 25.1114 16.3852 25.8528 20.3693 25.6382C24.6061 25.404 27.599 24.3115 29.0178 22.5361C30.1255 21.1509 29.9117 19.8047 29.8923 19.7657C29.8534 19.4926 30.0284 19.2389 30.281 19.1999C30.5337 19.1414 30.7863 19.317 30.8446 19.5901C30.864 19.6682 31.1556 21.385 29.7951 23.1214C28.1821 25.1894 25.0336 26.36 20.4082 26.6332C19.9418 26.6136 19.4753 26.6332 19.0283 26.6332Z" fill="#424242"/>
</svg>
