<svg width="80" height="96" viewBox="0 0 80 96" fill="none" xmlns="http://www.w3.org/2000/svg">
<path d="M48.103 32.0117C49.4299 31.6562 50.7453 31.2548 52.0376 30.7846C57.6106 28.7434 62.4451 24.8099 62.2951 18.5485C62.2836 18.2962 62.272 18.044 62.249 17.7917C61.8797 13.4913 59.2836 9.58076 55.8683 6.90878C46.2685 -0.614066 30.0687 -1.47415 19.0381 3.12442C15.219 4.71844 10.9729 7.56244 8.63062 11.2895C3.47301 18.4109 0 32.0346 0 47.5619C0 70.8415 4.53454 89.7059 19.0728 89.7059C26.3419 89.7059 31.661 78.6166 33.7494 62.9631C53.8376 64.603 70.8334 70.6465 77.8372 60.9907C84.564 51.7362 66.0912 39.4428 48.103 32.0117Z" fill="#80C372"/>
<path d="M36.5029 40.5149C37.2575 40.5149 37.8693 39.2913 37.8693 37.782C37.8693 36.2727 37.2575 35.0492 36.5029 35.0492C35.7482 35.0492 35.1365 36.2727 35.1365 37.782C35.1365 39.2913 35.7482 40.5149 36.5029 40.5149Z" fill="black"/>
<path d="M42.7494 40.5149C43.504 40.5149 44.1158 39.2913 44.1158 37.782C44.1158 36.2727 43.504 35.0492 42.7494 35.0492C41.9947 35.0492 41.3829 36.2727 41.3829 37.782C41.3829 39.2913 41.9947 40.5149 42.7494 40.5149Z" fill="black"/>
<path d="M13.4925 92.1963H9.26861C8.24825 92.1963 7.41772 93.039 7.41772 94.0743C7.41772 95.1097 8.24825 95.9524 9.26861 95.9524H13.7653C14.7857 95.9524 15.6162 95.1097 15.6162 94.0743V85.0211H13.4925V92.1963Z" fill="#80C372"/>
<path d="M25.1752 92.1963H21.1525V85.0211H19.1299V94.0743C19.1299 95.1097 19.9209 95.9524 20.8926 95.9524H25.1752C26.147 95.9524 26.938 95.1097 26.938 94.0743C26.938 93.0269 26.147 92.1963 25.1752 92.1963Z" fill="#80C372"/>
<path d="M28.1152 66.4761C27.9433 65.834 28.0693 65.1231 28.4016 64.5154C28.7224 63.8962 29.2838 63.4032 29.9024 63.0821C30.5325 62.7611 31.22 62.6579 31.8844 62.6579C32.2167 62.6694 32.5375 62.7152 32.8583 62.7726C33.1791 62.8643 33.4884 62.956 33.7748 63.1051C33.454 63.2197 33.1447 63.2771 32.8468 63.3344C32.5489 63.4032 32.2625 63.4834 31.9761 63.5408C31.4262 63.7242 30.8762 63.8389 30.4065 64.1026C29.4671 64.5613 28.7109 65.3065 28.1152 66.4761Z" fill="black"/>
</svg>
