<svg width="73" height="83" viewBox="0 0 73 83" fill="none" xmlns="http://www.w3.org/2000/svg">
<path d="M61.2568 61.2412C60.4979 61.2412 59.7028 60.9515 59.0884 60.4083C57.7874 59.2132 57.7151 57.1851 58.9077 55.8813C66.75 47.2981 68.4486 32.5944 62.7024 22.4177C61.835 20.8966 62.3771 18.941 63.9311 18.0718C65.449 17.2026 67.4006 17.7459 68.2679 19.3031C75.279 31.7614 73.2191 49.7246 63.6059 60.2272C62.9915 60.9153 62.1242 61.2775 61.2568 61.2775V61.2412Z" fill="#78C3ED"/>
<path d="M31.9126 82.5C30.72 82.5 29.5996 81.8119 29.0575 80.7254C28.5154 79.639 28.6239 78.3352 29.3467 77.3573C30.6477 75.619 32.0571 73.6271 33.2136 71.8887C28.7323 71.8887 24.2148 71.1282 20.1672 69.6071C18.5047 68.9914 17.7097 67.1444 18.324 65.4785C18.9384 63.8126 20.7815 63.0158 22.444 63.6315C27.2867 65.4785 32.9968 65.9855 38.1286 65.0439C39.1405 64.8628 40.1524 65.1526 40.9114 65.8769C41.6342 66.6012 41.9956 67.6152 41.8872 68.6293C41.7426 69.6071 41.1644 70.9471 40.3693 72.432C42.8629 70.585 45.5734 68.0136 48.3562 64.8628C49.5126 63.5591 51.5365 63.4142 52.8736 64.5731C54.1747 65.732 54.3192 67.7601 53.1627 69.1001C45.3566 77.9368 38.237 82.4276 31.9849 82.5H31.9126Z" fill="#80C372"/>
<path d="M11.1675 61.2412C10.3001 61.2412 9.43276 60.8791 8.81839 60.1909C-0.794784 49.6883 -2.85475 31.7252 4.15636 19.2669C5.02371 17.7458 6.97526 17.1664 8.49313 18.0355C10.011 18.9047 10.5531 20.8604 9.72188 22.3815C4.0118 32.5582 5.67423 47.2618 13.5166 55.845C14.7092 57.1488 14.6369 59.1769 13.3359 60.372C12.7215 60.9515 11.9625 61.205 11.1675 61.205V61.2412Z" fill="#A088CE"/>
<path d="M16.1197 13.1464C15.1801 13.1464 14.2766 12.748 13.6622 11.9875C12.5419 10.6113 12.7587 8.6194 14.0959 7.49671C26.3111 -2.4989 46.1157 -2.4989 58.2948 7.49671C59.6681 8.6194 59.8488 10.6113 58.7285 11.9875C57.6081 13.3637 55.6205 13.5448 54.2471 12.4221C44.4533 4.38213 27.9013 4.38213 18.1074 12.4221C17.5292 12.8929 16.8064 13.1464 16.0836 13.1464H16.1197Z" fill="#F7D359"/>
<path d="M30.8271 33.6447C30.9717 33.3549 31.1163 33.0652 31.2247 32.7755C31.3331 32.4858 31.4054 32.1598 31.4777 31.8339C31.5499 31.5079 31.5861 31.1095 31.6222 30.7112C31.6222 30.3128 31.6222 29.842 31.6222 29.335V28.7555C31.6222 28.7555 31.5861 28.502 31.5138 28.4296C31.4415 28.3571 31.3331 28.3209 31.1885 28.3209H28.4781V29.3712C28.4781 30.0593 28.4781 30.675 28.3696 31.2906C28.2974 31.9063 28.1889 32.4857 28.0805 32.9928C27.936 33.4998 27.7553 33.9706 27.5384 34.369C27.3216 34.7674 27.0686 35.1295 26.7434 35.383C26.3097 35.7452 25.876 35.9263 25.37 35.9987C24.8641 36.0711 24.4304 35.9263 24.0329 35.5641C23.8883 35.4192 23.7438 35.2744 23.6715 35.0933C23.5992 34.9122 23.5631 34.6949 23.5631 34.5138C23.5631 34.3328 23.5992 34.1155 23.6715 33.8982C23.7438 33.6809 23.8522 33.4998 24.0329 33.3549C24.2497 33.1376 24.4304 32.8841 24.5388 32.6306C24.6834 32.3771 24.7557 32.0874 24.8279 31.7614C24.9002 31.4355 24.9364 31.0733 24.9725 30.7112C25.0086 30.349 24.9725 29.8782 24.9725 29.4074V28.3571H22.262C21.9729 28.3571 21.7561 28.3209 21.5392 28.2123C21.3585 28.1398 21.1778 27.995 21.0694 27.8501C20.961 27.7052 20.8526 27.5242 20.7803 27.3431C20.708 27.162 20.6719 26.9809 20.6719 26.7998C20.6719 26.6188 20.6719 26.4377 20.7442 26.2566C20.8164 26.0755 20.8887 25.8944 21.0333 25.7496C21.1778 25.6047 21.3224 25.4961 21.5392 25.3874C21.7561 25.2788 21.9729 25.2426 22.262 25.2426H32.3089C32.851 25.2426 33.2846 25.2788 33.6099 25.3874C33.9713 25.4961 34.2604 25.6409 34.4773 25.8582C34.6941 26.0755 34.8387 26.329 34.9471 26.655C35.0194 26.9809 35.0916 27.3793 35.0916 27.8139V29.4074C35.0916 30.675 35.0194 31.7614 34.8387 32.6306C34.6941 33.4998 34.405 34.2603 34.0797 34.9122C33.8267 35.383 33.4292 35.709 32.9232 35.8901C32.4173 36.0711 31.9113 36.0711 31.4415 35.8538C31.2247 35.7814 31.0801 35.6365 30.9356 35.4917C30.791 35.3468 30.7187 35.1657 30.6464 34.9484C30.5742 34.7674 30.5742 34.5501 30.5742 34.3328C30.5742 34.1155 30.6464 33.8982 30.7549 33.7171L30.8271 33.6447Z" fill="#A088CE"/>
<path d="M47.5955 28.6107C47.5955 28.6107 47.5955 28.3934 47.5232 28.2847C47.4509 28.1761 47.3425 28.1399 47.1256 28.1399H40.2952C39.8615 28.1399 39.5363 27.995 39.2833 27.7053C39.0303 27.4156 38.9219 27.0896 38.9219 26.6912C38.9219 26.2929 39.0303 26.0031 39.2833 25.7134C39.5363 25.4237 39.8615 25.2788 40.2952 25.2788H48.1376C48.7519 25.2788 49.2579 25.3512 49.6916 25.4961C50.0891 25.641 50.4144 25.822 50.6673 26.0756C50.9203 26.3291 51.0649 26.6188 51.1733 26.981C51.2817 27.3431 51.3178 27.7053 51.3178 28.1399V32.0512H43.1864C42.9696 32.0512 42.825 32.0874 42.7166 32.1961C42.6082 32.3047 42.572 32.4134 42.572 32.5944V32.6669C42.572 32.9928 42.7889 33.1377 43.1864 33.1377H50.3059C50.5589 33.1377 50.7758 33.1739 50.9565 33.2463C51.1372 33.3188 51.2817 33.4274 51.3901 33.5723C51.4985 33.7171 51.5708 33.862 51.6431 34.0431C51.6792 34.2242 51.7154 34.369 51.7154 34.5501C51.7154 34.7312 51.7154 34.876 51.6431 35.0571C51.5708 35.2382 51.4985 35.3831 51.3901 35.4917C51.2817 35.6366 51.1372 35.7452 50.9565 35.8177C50.7758 35.8901 50.5589 35.9263 50.3059 35.9263H42.2829C41.1264 35.9263 40.2229 35.6366 39.6086 35.0571C38.9942 34.4777 38.7051 33.7171 38.7051 32.7393V32.4134C38.7051 31.4355 38.9942 30.675 39.6086 30.0955C40.2229 29.5161 41.0903 29.2263 42.2829 29.2263H47.5955V28.6107Z" fill="#F7D359"/>
<path d="M30.8271 47.95C30.9717 47.6602 31.1163 47.3705 31.2247 47.0808C31.3331 46.791 31.4054 46.4651 31.4777 46.1392C31.5499 45.8132 31.5861 45.4148 31.6222 45.0165C31.6222 44.6181 31.6222 44.1473 31.6222 43.6403V43.0608C31.6222 43.0608 31.5861 42.8073 31.5138 42.7349C31.4415 42.6624 31.3331 42.6262 31.1885 42.6262H28.4781V43.6765C28.4781 44.3646 28.4781 44.9802 28.3696 45.5959C28.2974 46.2116 28.1889 46.791 28.0805 47.2981C27.936 47.8051 27.7553 48.2759 27.5384 48.6743C27.3216 49.0727 27.0686 49.4348 26.7434 49.6883C26.3097 50.0505 25.876 50.2316 25.37 50.304C24.8641 50.3764 24.4304 50.2316 24.0329 49.8694C23.8883 49.7245 23.7438 49.5797 23.6715 49.3986C23.5992 49.2175 23.5631 49.0002 23.5631 48.8191C23.5631 48.6381 23.5992 48.4208 23.6715 48.2035C23.7438 47.9862 23.8522 47.8051 24.0329 47.6602C24.2497 47.4429 24.4304 47.1894 24.5388 46.9359C24.6834 46.6824 24.7557 46.3927 24.8279 46.0667C24.9002 45.7408 24.9364 45.3786 24.9725 45.0165C25.0086 44.6543 24.9725 44.1835 24.9725 43.7127V42.6624H22.262C21.9729 42.6624 21.7561 42.6262 21.5392 42.5176C21.3585 42.4451 21.1778 42.3003 21.0694 42.1554C20.961 42.0105 20.8526 41.8295 20.7803 41.6484C20.708 41.4673 20.6719 41.2862 20.6719 41.1051C20.6719 40.9241 20.6719 40.743 20.7442 40.5619C20.8164 40.3808 20.8887 40.1997 21.0333 40.0549C21.1778 39.91 21.3224 39.8014 21.5392 39.6927C21.7561 39.5841 21.9729 39.5479 22.262 39.5479H32.3089C32.851 39.5479 33.2846 39.5841 33.6099 39.6927C33.9713 39.8014 34.2604 39.9462 34.4773 40.1635C34.6941 40.3808 34.8387 40.6343 34.9471 40.9603C35.0194 41.2862 35.0916 41.6846 35.0916 42.1192V43.7127C35.0916 44.9802 35.0194 46.0667 34.8387 46.9359C34.6941 47.8051 34.405 48.5656 34.0797 49.2175C33.8267 49.6883 33.4292 50.0143 32.9232 50.1953C32.4173 50.3764 31.9113 50.3764 31.4415 50.1591C31.2247 50.0867 31.0801 49.9418 30.9356 49.797C30.791 49.6521 30.7187 49.471 30.6464 49.2537C30.5742 49.0727 30.5742 48.8554 30.5742 48.6381C30.5742 48.4208 30.6464 48.2035 30.7549 48.0224L30.8271 47.95Z" fill="#80C372"/>
<path d="M47.5955 42.916C47.5955 42.916 47.5955 42.6987 47.5232 42.59C47.4509 42.4814 47.3425 42.4452 47.1256 42.4452H40.2952C39.8615 42.4452 39.5363 42.3003 39.2833 42.0106C39.0303 41.7208 38.9219 41.3949 38.9219 40.9965C38.9219 40.5982 39.0303 40.3084 39.2833 40.0187C39.5363 39.729 39.8615 39.5841 40.2952 39.5841H48.1376C48.7519 39.5841 49.2579 39.6565 49.6916 39.8014C50.0891 39.9463 50.4144 40.1273 50.6673 40.3809C50.9203 40.6344 51.0649 40.9241 51.1733 41.2863C51.2817 41.6484 51.3178 42.0106 51.3178 42.4452V46.3565H43.1864C42.9696 46.3565 42.825 46.3927 42.7166 46.5014C42.6082 46.61 42.572 46.7187 42.572 46.8997V46.9722C42.572 47.2981 42.7889 47.443 43.1864 47.443H50.3059C50.5589 47.443 50.7758 47.4792 50.9565 47.5516C51.1372 47.6241 51.2817 47.7327 51.3901 47.8776C51.4985 48.0224 51.5708 48.1673 51.6431 48.3484C51.6792 48.5295 51.7154 48.6743 51.7154 48.8554C51.7154 49.0365 51.7154 49.1813 51.6431 49.3624C51.5708 49.5435 51.4985 49.6884 51.3901 49.797C51.2817 49.9419 51.1372 50.0505 50.9565 50.123C50.7758 50.1954 50.5589 50.2316 50.3059 50.2316H42.2829C41.1264 50.2316 40.2229 49.9419 39.6086 49.3624C38.9942 48.783 38.7051 48.0224 38.7051 47.0446V46.7187C38.7051 45.7408 38.9942 44.9803 39.6086 44.4008C40.2229 43.8214 41.0903 43.5316 42.2829 43.5316H47.5955V42.916Z" fill="#78C3ED"/>
</svg>
