<svg width="72" height="131" viewBox="0 0 72 131" fill="none" xmlns="http://www.w3.org/2000/svg">
<path d="M39.9741 0C28.3638 0 18.2295 5.96971 12.7972 14.8329C12.6754 15.0157 12.5537 15.1984 12.432 15.3811C5.15843 24.9449 0 42.0316 0 63.4739C0 94.4494 10.3625 119.562 23.1597 119.562C30.1137 119.562 31.8636 111.506 32.8831 106.084C35.1047 94.2362 34.9526 82.0378 36.8546 70.1441C37.2046 67.9359 37.5546 65.743 37.8742 63.5348C37.9198 63.1845 37.9807 62.8343 38.0263 62.484C38.4524 59.5296 40.2784 56.9864 42.9413 55.6615C45.2238 54.5193 47.5367 53.4228 50.017 52.7071C56.195 50.9253 62.5251 48.7476 66.6335 43.4784C70.1334 38.9859 71.7616 34.2954 71.9289 29.7267C72.492 14.1172 56.1797 0 39.9741 0Z" fill="#F7D359"/>
<path d="M43.0327 29.7267C44.184 29.7267 45.1173 29.0449 45.1173 28.2039C45.1173 27.3628 44.184 26.681 43.0327 26.681C41.8813 26.681 40.948 27.3628 40.948 28.2039C40.948 29.0449 41.8813 29.7267 43.0327 29.7267Z" fill="black"/>
<path d="M64.3814 29.7267C65.5328 29.7267 66.4661 29.0449 66.4661 28.2039C66.4661 27.3628 65.5328 26.681 64.3814 26.681C63.2301 26.681 62.2968 27.3628 62.2968 28.2039C62.2968 29.0449 63.2301 29.7267 64.3814 29.7267Z" fill="black"/>
<path d="M46.5172 28.3257C46.5172 28.3257 46.1064 37.9808 55.4494 36.9452C55.4494 36.9452 62.5403 36.6102 61.3382 28.3714" stroke="black" stroke-width="0.5" stroke-miterlimit="10" stroke-linecap="round" stroke-linejoin="round"/>
<path d="M51.2496 40.326C51.8583 38.925 53.456 38.0417 55.0386 38.0112C55.8298 38.0265 56.6059 38.194 57.3058 38.5442C57.6558 38.6965 57.9602 38.925 58.2797 39.1382C58.5536 39.3971 58.8427 39.6407 59.0862 39.9301C58.3558 39.7473 57.6862 39.5493 57.0167 39.3971C56.3472 39.26 55.7081 39.1686 55.069 39.1686C53.7756 39.1686 52.5278 39.5646 51.2496 40.326Z" fill="black"/>
<path d="M17.9243 125.422H15.5505C14.2419 125.422 13.1768 126.488 13.1768 127.798C13.1768 129.107 14.2419 130.173 15.5505 130.173H18.2743C19.583 130.173 20.6481 129.107 20.6481 127.798V116.345H17.9243V125.422Z" fill="#F7D359"/>
<path d="M28.5455 125.422H26.1717V116.345H23.4479V127.798C23.4479 129.107 24.513 130.173 25.8217 130.173H28.5455C29.8541 130.173 30.9192 129.107 30.9192 127.798C30.9192 126.488 29.8693 125.422 28.5455 125.422Z" fill="#F7D359"/>
</svg>
