<svg width="24" height="24" viewBox="0 0 24 24" fill="none" xmlns="http://www.w3.org/2000/svg">
<path fill-rule="evenodd" clip-rule="evenodd" d="M15.502 14.0002H14.708L14.432 13.7262C15.407 12.5892 16 11.1152 16 9.50021C16 5.91021 13.09 3.00021 9.5 3.00021C5.91 3.00021 3 5.91021 3 9.50021C3 13.0902 5.91 16.0002 9.5 16.0002C11.115 16.0002 12.588 15.4082 13.725 14.4342L14.001 14.7082V15.5002L18.999 20.4912L20.49 19.0002L15.502 14.0002ZM9.5 14.0002C7.014 14.0002 5 11.9862 5 9.50021C5 7.01521 7.014 5.00021 9.5 5.00021C11.985 5.00021 14 7.01521 14 9.50021C14 11.9862 11.985 14.0002 9.5 14.0002Z" fill="white"/>
</svg>
