<svg width="1450" height="620" viewBox="0 0 1450 620" fill="none" xmlns="http://www.w3.org/2000/svg">
<path d="M1 619C44.9858 600.101 130.261 531.832 157 471C187.052 402.632 274.917 371.354 309.906 359.949C345.561 349.848 418.729 319.802 442.863 294.453C454.075 285.302 471.747 260.191 456 241C440.246 221.8 421.017 225.488 413.229 230.669C412.986 230.83 412.734 230.969 412.467 231.085C390.163 240.768 383.579 277.352 432.866 294.453C463.523 304.229 542.031 310.485 610.808 257.307C667.457 187.901 785.752 46.5469 805.746 36.3803C830.738 23.6722 898.716 -48.6665 1100.65 59.8415C1137.31 91.7748 1226.41 150.558 1289.59 130.225C1324.79 125.029 1385.16 95.2326 1351.91 52.4502C1351.69 52.1742 1351.43 51.9144 1351.15 51.71C1330.05 36.4975 1291.12 45.3182 1281.59 95.0333C1272 145.084 1361.57 285.33 1407.55 349.196C1449.54 397.096 1470.33 533.758 1417.55 619" stroke="#D3D3D3" stroke-linecap="round" stroke-dasharray="6 6"/>
</svg>
