<svg
  width="65"
  height="112"
  viewBox="0 0 65 112"
  fill="none"
  xmlns="http://www.w3.org/2000/svg"
>
  <path
    d="M40.932 106.417L36.561 107.572V99.4741L34.3633 100.322V109.562C34.3633 110.619 35.2227 111.479 36.2786 111.479L41.2021 111.074C42.258 111.074 42.8474 109.39 42.8474 108.334C42.8474 107.277 41.9879 106.417 40.932 106.417Z"
    fill="#78C3ED"
  />
  <path
    d="M24.0865 107.572L19.7155 106.417C18.6596 106.417 17.8002 107.277 17.8002 108.334C17.8002 109.39 18.3895 111.074 19.4454 111.074L24.3689 111.479C25.4248 111.479 26.2842 110.619 26.2842 109.562V100.322H24.0865V107.572Z"
    fill="#78C3ED"
  />
  <path
    d="M64.2723 57.8429C64.2723 36.5972 58.4526 19.382 43.5839 19.382C27.2297 19.382 25.523 36.7693 22.8833 57.8552C22.7728 58.7522 22.3308 59.5755 21.6187 60.1285C13.4415 66.4813 -3.3179 66.5059 -3.98092 80.4771C-4.12825 83.4385 -3.41613 86.4122 -2.06555 89.0541C3.6437 100.187 16.6952 101.207 27.2911 101.207C34.4369 101.207 41.0424 99.3144 47.3656 96.1073C53.1853 93.1459 57.2616 87.8253 59.84 81.9394C62.3692 76.1641 63.5848 69.8604 64.0636 63.5936C64.1987 61.689 64.2723 59.7598 64.2723 57.8429Z"
    fill="#78C3ED"
  />
  <path
    d="M43.498 15.9045C47.7293 15.9045 51.1595 12.4716 51.1595 8.23689C51.1595 4.00218 47.7293 0.569275 43.498 0.569275C39.2667 0.569275 35.8365 4.00218 35.8365 8.23689C35.8365 12.4716 39.2667 15.9045 43.498 15.9045Z"
    fill="#78C3ED"
  />
  <path
    d="M42.1107 31.3135C42.6464 31.3135 43.0807 30.8019 43.0807 30.1707C43.0807 29.5396 42.6464 29.028 42.1107 29.028C41.575 29.028 41.1407 29.5396 41.1407 30.1707C41.1407 30.8019 41.575 31.3135 42.1107 31.3135Z"
    fill="black"
  />
  <path
    d="M46.3465 31.3135C46.8822 31.3135 47.3165 30.8019 47.3165 30.1707C47.3165 29.5396 46.8822 29.028 46.3465 29.028C45.8108 29.028 45.3766 29.5396 45.3766 30.1707C45.3766 30.8019 45.8108 31.3135 46.3465 31.3135Z"
    fill="black"
  />
  <path
    d="M37.6536 31.3135C37.6536 31.3135 37.5554 35.774 44.5416 35.3808C51.5277 34.9876 50.8525 31.3135 50.8525 31.3135"
    stroke="black"
    stroke-width="0.5"
    stroke-miterlimit="10"
    stroke-linecap="round"
    stroke-linejoin="round"
  />
</svg>
