<svg width="181" height="44" viewBox="0 0 181 44" fill="none" xmlns="http://www.w3.org/2000/svg">
<path d="M16.5989 35.3823C17.3578 35.0564 18.0806 34.658 18.7311 34.2234C19.3816 33.7888 19.9599 33.2456 20.4297 32.5213C20.8995 31.8332 21.2609 30.9278 21.55 29.8413C21.803 28.7548 21.9476 27.3786 21.9476 25.7127V10.3571C21.9476 9.95873 21.8753 9.70522 21.7307 9.56036C21.5862 9.45171 21.3332 9.37928 20.9718 9.37928H16.3097V25.1694C16.3097 27.8132 15.9122 30.0586 15.1533 31.8332C14.3943 33.644 13.4186 35.0926 12.2621 36.2515C11.1056 37.4104 9.84073 38.2434 8.46742 38.7866C7.09411 39.3299 5.82923 39.6921 4.67275 39.8007C3.6247 39.9093 2.75735 39.7283 2.03456 39.2575C1.31176 38.7504 0.914221 38.0985 0.733522 37.2656C0.552823 36.2877 0.625101 35.3823 0.950359 34.5494C1.27562 33.7164 1.99841 33.0645 3.15489 32.5937C3.69698 32.3402 4.27521 32.0867 4.85345 31.797C5.43169 31.5072 5.93764 31.1089 6.40746 30.5656C6.87728 30.0586 7.23867 29.3343 7.52779 28.5013C7.81691 27.6321 7.96147 26.5094 7.96147 25.1332V10.4658C7.96147 10.0674 7.88919 9.81387 7.74463 9.66901C7.60007 9.56036 7.34709 9.48793 6.9857 9.48793H4.31136C3.66084 9.48793 3.11875 9.37928 2.64893 9.16198C2.17911 8.94469 1.81771 8.65496 1.52859 8.2928C1.23948 7.93064 1.02264 7.53226 0.878084 7.06146C0.733526 6.59065 0.661241 6.15606 0.661241 5.68525C0.661241 5.21444 0.733525 4.77985 0.841944 4.30904C0.950363 3.87445 1.1672 3.43986 1.45632 3.0777C1.74544 2.71554 2.10683 2.42581 2.57665 2.20851C3.04647 1.99122 3.58856 1.88257 4.27522 1.88257H24.3689C25.6699 1.88257 26.718 1.99122 27.5131 2.1723C28.3443 2.35338 28.9587 2.67932 29.3923 3.11391C29.826 3.54851 30.1151 4.12796 30.2597 4.85228C30.4042 5.5766 30.4765 6.482 30.4765 7.6047V25.7489C30.4765 28.4651 30.1513 30.8191 29.5008 32.811C28.8502 34.8029 27.9468 36.4688 26.8626 37.8088C25.7422 39.1488 24.4773 40.2353 23.0679 40.9958C21.6584 41.7564 20.1767 42.2996 18.695 42.5531C17.7553 42.7342 16.8518 42.6255 16.0206 42.2272C15.1894 41.8288 14.6473 41.2131 14.3943 40.4164C14.0691 39.3299 14.0691 38.3521 14.4666 37.4104C14.8642 36.4688 15.5508 35.7807 16.5627 35.3461L16.5989 35.3823ZM34.1989 43.5672V4.74363C34.1989 3.22256 34.6687 2.09987 35.5722 1.33933C36.4757 0.578796 37.5599 0.18042 38.7887 0.18042C40.0174 0.18042 41.1016 0.578796 42.0051 1.33933C42.9086 2.09987 43.3784 3.25878 43.3784 4.74363V43.5672H34.2351H34.1989Z" fill="#555555"/>
<path d="M57.3651 32.0505C57.3651 32.8472 57.5096 33.3905 57.8349 33.644C58.1601 33.8975 58.7022 34.0424 59.4973 34.0424H73.0858C73.8086 34.0424 74.3869 34.151 74.8928 34.3683C75.3988 34.5856 75.7963 34.8753 76.1216 35.2375C76.4468 35.5996 76.6637 35.998 76.8082 36.4688C76.9528 36.9034 77.0251 37.3742 77.0251 37.845C77.0251 38.7866 76.6998 39.6558 76.0854 40.4526C75.4711 41.2493 74.4591 41.6477 73.0858 41.6477H56.064C54.6184 41.6477 53.3897 41.5028 52.3778 41.2131C51.3659 40.9234 50.5346 40.4888 49.9203 39.8731C49.3059 39.2575 48.8361 38.4607 48.547 37.4467C48.2579 36.4326 48.1133 35.2375 48.1133 33.7888V25.3867C48.1133 23.9381 48.2579 22.7068 48.547 21.7289C48.8361 20.7511 49.3059 19.9543 49.9203 19.3387C50.5346 18.723 51.3659 18.2884 52.3778 18.0349C53.3897 17.7814 54.6184 17.6365 56.064 17.6365H64.3039V10.9366C64.3039 10.6106 64.2316 10.3209 64.0871 10.0674C63.9425 9.77765 63.5811 9.63279 63.0751 9.63279H52.4501C51.7273 9.63279 51.149 9.52414 50.6431 9.30685C50.1371 9.08955 49.7396 8.79982 49.4505 8.43766C49.1252 8.0755 48.9084 7.64091 48.7638 7.20632C48.6192 6.77173 48.547 6.2647 48.547 5.83011C48.547 5.39552 48.6192 4.8885 48.7638 4.4539C48.9084 3.9831 49.1252 3.58472 49.4505 3.22256C49.7757 2.8604 50.1733 2.53446 50.6792 2.31716C51.1852 2.09987 51.7634 1.955 52.4862 1.955H65.5326C67.1228 1.955 68.46 2.06365 69.4719 2.31716C70.5199 2.57067 71.315 2.96905 71.9294 3.51229C72.5437 4.05553 72.9774 4.77985 73.2304 5.68525C73.4834 6.59065 73.5918 7.67713 73.5918 9.01712V25.2057H59.4973C58.7022 25.2057 58.1601 25.3505 57.8349 25.604C57.5096 25.8575 57.3651 26.4008 57.3651 27.1975V32.1591V32.0505ZM79.5549 43.5672V4.74363C79.5549 3.22256 80.0247 2.09987 80.9282 1.33933C81.8678 0.578796 82.9159 0.18042 84.1446 0.18042C85.3734 0.18042 86.4575 0.578796 87.361 1.33933C88.3007 2.09987 88.7344 3.25878 88.7344 4.74363V43.5672H79.5187H79.5549Z" fill="#555555"/>
<path d="M108.827 35.3823C109.586 35.0564 110.309 34.658 110.96 34.2234C111.61 33.7888 112.188 33.2456 112.658 32.5213C113.128 31.8332 113.489 30.9278 113.779 29.8413C114.032 28.7548 114.176 27.3786 114.176 25.7127V10.3571C114.176 9.95873 114.104 9.70522 113.959 9.56036C113.815 9.45171 113.562 9.37928 113.2 9.37928H108.538V25.1694C108.538 27.8132 108.141 30.0586 107.382 31.8332C106.623 33.644 105.647 35.0926 104.491 36.2515C103.334 37.4104 102.069 38.2434 100.696 38.7866C99.3226 39.3299 98.0577 39.6921 96.9013 39.8007C95.8532 39.9093 94.9859 39.7283 94.2631 39.2575C93.5403 38.7504 93.1427 38.0985 92.962 37.2656C92.7813 36.2877 92.8536 35.3823 93.1789 34.5494C93.5041 33.7164 94.2269 33.0645 95.3834 32.5937C95.9255 32.3402 96.5037 32.0867 97.082 31.797C97.6602 31.5072 98.1662 31.1089 98.636 30.5656C99.1058 30.0586 99.4672 29.3343 99.7563 28.5013C100.045 27.6321 100.19 26.5094 100.19 25.1332V10.4658C100.19 10.0674 100.118 9.81387 99.9732 9.66901C99.8286 9.56036 99.5756 9.48793 99.2142 9.48793H96.5399C95.8894 9.48793 95.3473 9.37928 94.8775 9.16198C94.4076 8.94469 94.0462 8.65496 93.7571 8.2928C93.468 7.93064 93.2512 7.53226 93.1066 7.06146C92.962 6.59065 92.8898 6.15606 92.8898 5.68525C92.8898 5.21444 92.962 4.77985 93.0705 4.30904C93.1789 3.87445 93.3957 3.43986 93.6848 3.0777C93.974 2.71554 94.3354 2.42581 94.8052 2.20851C95.275 1.99122 95.8171 1.88257 96.5037 1.88257H116.597C117.898 1.88257 118.947 1.99122 119.742 2.1723C120.573 2.35338 121.187 2.67932 121.621 3.11391C122.055 3.54851 122.344 4.12796 122.488 4.85228C122.633 5.5766 122.705 6.482 122.705 7.6047V25.7489C122.705 28.4651 122.38 30.8191 121.729 32.811C121.079 34.8029 120.175 36.4688 119.091 37.8088C117.971 39.1488 116.706 40.2353 115.296 40.9958C113.887 41.7564 112.405 42.2996 110.923 42.5531C109.984 42.7342 109.08 42.6255 108.249 42.2272C107.418 41.8288 106.876 41.2131 106.623 40.4164C106.298 39.3299 106.298 38.3521 106.695 37.4104C107.093 36.4688 107.779 35.7807 108.791 35.3461L108.827 35.3823ZM126.427 43.5672V4.74363C126.427 3.22256 126.897 2.09987 127.801 1.33933C128.704 0.578796 129.788 0.18042 131.017 0.18042C132.246 0.18042 133.33 0.578796 134.234 1.33933C135.137 2.09987 135.607 3.25878 135.607 4.74363V43.5672H126.464H126.427Z" fill="#555555"/>
<path d="M149.594 32.0505C149.594 32.8472 149.738 33.3905 150.063 33.644C150.389 33.8975 150.931 34.0424 151.726 34.0424H165.314C166.037 34.0424 166.615 34.151 167.121 34.3683C167.627 34.5856 168.025 34.8753 168.35 35.2375C168.675 35.5996 168.892 35.998 169.037 36.4688C169.181 36.9034 169.254 37.3742 169.254 37.845C169.254 38.7866 168.928 39.6558 168.314 40.4526C167.7 41.2493 166.688 41.6477 165.314 41.6477H148.293C146.847 41.6477 145.618 41.5028 144.606 41.2131C143.594 40.9234 142.763 40.4888 142.149 39.8731C141.534 39.2575 141.065 38.4607 140.775 37.4467C140.486 36.4326 140.342 35.2375 140.342 33.7888V25.3867C140.342 23.9381 140.486 22.7068 140.775 21.7289C141.065 20.7511 141.534 19.9543 142.149 19.3387C142.763 18.723 143.594 18.2884 144.606 18.0349C145.618 17.7814 146.847 17.6365 148.293 17.6365H156.532V10.9366C156.532 10.6106 156.46 10.3209 156.316 10.0674C156.171 9.77765 155.81 9.63279 155.304 9.63279H144.679C143.956 9.63279 143.378 9.52414 142.872 9.30685C142.366 9.08955 141.968 8.79982 141.679 8.43766C141.354 8.0755 141.137 7.64091 140.992 7.20632C140.848 6.77173 140.775 6.2647 140.775 5.83011C140.775 5.39552 140.848 4.8885 140.992 4.4539C141.137 3.9831 141.354 3.58472 141.679 3.22256C142.004 2.8604 142.402 2.53446 142.908 2.31716C143.414 2.09987 143.992 1.955 144.715 1.955H157.761C159.351 1.955 160.688 2.06365 161.7 2.31716C162.748 2.57067 163.544 2.96905 164.158 3.51229C164.772 4.05553 165.206 4.77985 165.459 5.68525C165.712 6.59065 165.82 7.67713 165.82 9.01712V25.2057H151.726C150.931 25.2057 150.389 25.3505 150.063 25.604C149.738 25.8575 149.594 26.4008 149.594 27.1975V32.1591V32.0505ZM171.783 43.5672V4.74363C171.783 3.22256 172.253 2.09987 173.157 1.33933C174.096 0.578796 175.144 0.18042 176.373 0.18042C177.602 0.18042 178.686 0.578796 179.59 1.33933C180.529 2.09987 180.963 3.25878 180.963 4.74363V43.5672H171.747H171.783Z" fill="#555555"/>
</svg>
