<svg width="86" height="113" viewBox="0 0 86 113" fill="none" xmlns="http://www.w3.org/2000/svg">
<path d="M37.8169 108.418H32.6976C31.4609 108.418 30.4542 109.426 30.4542 110.663C30.4542 111.901 31.4609 112.908 32.6976 112.908H38.1477C39.3844 112.908 40.391 111.901 40.391 110.663V99.8406H37.8169V108.418Z" fill="#907BB7"/>
<path d="M52.7581 108.418H47.6388V99.8406H45.0647V110.663C45.0647 111.901 46.0713 112.908 47.308 112.908H52.7581C53.9948 112.908 55.0015 111.901 55.0015 110.663C55.0015 109.426 54.0092 108.418 52.7581 108.418Z" fill="#907BB7"/>
<path d="M67.124 1.88985C51.8665 -0.398456 35.5018 -0.830211 20.2587 1.83228C8.36624 3.9047 -1.35481 10.8704 0.15512 24.5714C0.917274 31.4795 5.13068 37.1786 11.3142 40.2873C15.2688 42.2733 16.7643 41.7984 21.1647 42.446L25.3493 88.7302C25.3493 98.5454 30.2962 106.389 42.9652 106.389C55.6342 106.389 60.4947 98.2144 60.4947 88.4135L64.7081 42.6763C65.2977 42.5612 65.8729 42.446 66.4481 42.3021C77.5785 39.6828 83.6901 34.0844 85.2575 23.0602C86.9831 10.8847 78.2975 3.5593 67.124 1.88985Z" fill="#907BB7"/>
<path d="M39.816 38.0133C40.642 38.0133 41.3115 36.8728 41.3115 35.4659C41.3115 34.0591 40.642 32.9186 39.816 32.9186C38.99 32.9186 38.3204 34.0591 38.3204 35.4659C38.3204 36.8728 38.99 38.0133 39.816 38.0133Z" fill="black"/>
<path d="M46.4308 38.0133C47.2568 38.0133 47.9264 36.8728 47.9264 35.4659C47.9264 34.0591 47.2568 32.9186 46.4308 32.9186C45.6049 32.9186 44.9353 34.0591 44.9353 35.4659C44.9353 36.8728 45.6049 38.0133 46.4308 38.0133Z" fill="black"/>
<path d="M36.4222 38.6897C36.4222 38.6897 42.5051 46.0008 50.2848 38.0133" stroke="black" stroke-width="0.5" stroke-miterlimit="10" stroke-linecap="round" stroke-linejoin="round"/>
</svg>
